<?xml version="1.0" encoding="utf-8"?>
<!-- Generator: Adobe Illustrator 19.1.0, SVG Export Plug-In . SVG Version: 6.00 Build 0)  -->
<svg version="1.1" xmlns="http://www.w3.org/2000/svg" xmlns:xlink="http://www.w3.org/1999/xlink" x="0px" y="0px"
	 viewBox="0 0 212 18.3" style="enable-background:new 0 0 212 18.3;" xml:space="preserve">
<style type="text/css">
	.st0{display:none;}
	.st1{display:inline;}
	.st2{clip-path:url(#SVGID_2_);}
</style>
<g id="png" class="st0">
	<g id="xvfUKl.tif" class="st1">
		
			<image style="overflow:visible;" width="212" height="19" id="Layer_0_1_" xlink:href="3505D48B54097296.png"  transform="matrix(1 0 0 1 0 -0.3387)">
		</image>
	</g>
</g>
<g id="Layer_1">
	<g>
		<path d="M56,14.6V3.5h3.6c0.7,0,1.3,0.1,1.8,0.2c0.5,0.1,0.9,0.3,1.2,0.6c0.3,0.2,0.6,0.6,0.7,0.9c0.2,0.4,0.2,0.8,0.2,1.2
			c0,0.3,0,0.5-0.1,0.8c-0.1,0.3-0.2,0.5-0.4,0.7c-0.2,0.2-0.4,0.4-0.7,0.6c-0.3,0.2-0.6,0.3-0.9,0.4c0.8,0.2,1.4,0.5,1.9,0.9
			c0.4,0.4,0.6,1,0.6,1.7c0,0.5-0.1,0.9-0.3,1.3c-0.2,0.4-0.4,0.7-0.8,1c-0.3,0.3-0.8,0.5-1.2,0.6c-0.5,0.2-1.1,0.2-1.7,0.2L56,14.6
			L56,14.6z M57.5,8.5h2c0.4,0,0.8,0,1.1-0.1C61,8.3,61.2,8.1,61.4,8c0.2-0.2,0.4-0.4,0.5-0.6c0.1-0.2,0.2-0.5,0.2-0.8
			c0-0.7-0.2-1.1-0.6-1.4c-0.4-0.3-1-0.5-1.9-0.5h-2.1L57.5,8.5L57.5,8.5z M57.5,9.6v3.9H60c0.4,0,0.8,0,1.1-0.1
			c0.3-0.1,0.6-0.2,0.8-0.4c0.2-0.2,0.4-0.4,0.4-0.6c0.1-0.2,0.1-0.5,0.1-0.8c0-0.6-0.2-1-0.6-1.4c-0.4-0.3-1-0.5-1.9-0.5L57.5,9.6
			L57.5,9.6z"/>
		<path d="M96,10v4.6h-1.5V3.5h3.2c0.7,0,1.3,0.1,1.8,0.2c0.5,0.1,1,0.3,1.3,0.6c0.3,0.3,0.6,0.6,0.8,1c0.2,0.4,0.2,0.8,0.2,1.3
			c0,0.4-0.1,0.8-0.2,1.1c-0.1,0.3-0.3,0.6-0.5,0.9c-0.2,0.3-0.5,0.5-0.9,0.7c-0.3,0.2-0.7,0.3-1.2,0.4c0.2,0.1,0.4,0.3,0.5,0.5
			l3.3,4.4h-1.4c-0.3,0-0.5-0.1-0.6-0.3l-2.9-4c-0.1-0.1-0.2-0.2-0.3-0.3C97.5,10,97.4,10,97.1,10L96,10L96,10z M96,8.9h1.6
			c0.4,0,0.8-0.1,1.2-0.2c0.3-0.1,0.6-0.3,0.9-0.4s0.4-0.4,0.5-0.7s0.2-0.6,0.2-0.9c0-0.7-0.2-1.2-0.7-1.5c-0.4-0.3-1.1-0.5-2-0.5
			H96V8.9z"/>
		<path d="M114.8,10v4.6h-1.5V3.5h3.2c0.7,0,1.3,0.1,1.8,0.2c0.5,0.1,1,0.3,1.3,0.6c0.3,0.3,0.6,0.6,0.8,1c0.2,0.4,0.2,0.8,0.2,1.3
			c0,0.4-0.1,0.8-0.2,1.1c-0.1,0.3-0.3,0.6-0.5,0.9c-0.2,0.3-0.5,0.5-0.9,0.7s-0.7,0.3-1.2,0.4c0.2,0.1,0.4,0.3,0.5,0.5l3.3,4.4
			h-1.4c-0.3,0-0.5-0.1-0.6-0.3l-2.9-4c-0.1-0.1-0.2-0.2-0.3-0.3c-0.1-0.1-0.3-0.1-0.5-0.1H114.8z M114.8,8.9h1.6
			c0.4,0,0.8-0.1,1.2-0.2s0.6-0.3,0.9-0.4s0.4-0.4,0.5-0.7s0.2-0.6,0.2-0.9c0-0.7-0.2-1.2-0.7-1.5c-0.4-0.3-1.1-0.5-2-0.5h-1.7
			L114.8,8.9L114.8,8.9z"/>
		<path d="M133.8,14.6h-1.5V3.5h1.5V14.6z"/>
		<path d="M153.5,12.3c0.1,0,0.2,0,0.2,0.1l0.6,0.6c-0.5,0.5-1,0.9-1.7,1.2c-0.7,0.3-1.4,0.4-2.4,0.4c-0.8,0-1.5-0.1-2.2-0.4
			c-0.7-0.3-1.2-0.7-1.7-1.2c-0.5-0.5-0.8-1.1-1.1-1.8c-0.3-0.7-0.4-1.5-0.4-2.3s0.1-1.6,0.4-2.3c0.3-0.7,0.7-1.3,1.2-1.8
			c0.5-0.5,1.1-0.9,1.8-1.2c0.7-0.3,1.5-0.4,2.3-0.4c0.8,0,1.5,0.1,2.1,0.4c0.6,0.3,1.1,0.6,1.6,1l-0.5,0.7c0,0.1-0.1,0.1-0.1,0.1
			c0,0-0.1,0.1-0.2,0.1c-0.1,0-0.1,0-0.2-0.1c-0.1,0-0.2-0.1-0.3-0.2c-0.1-0.1-0.2-0.1-0.4-0.2c-0.1-0.1-0.3-0.2-0.5-0.2
			c-0.2-0.1-0.4-0.1-0.7-0.2c-0.3,0-0.6-0.1-0.9-0.1c-0.6,0-1.2,0.1-1.7,0.3c-0.5,0.2-0.9,0.5-1.3,0.9c-0.4,0.4-0.6,0.8-0.8,1.4
			s-0.3,1.1-0.3,1.8c0,0.7,0.1,1.3,0.3,1.8c0.2,0.5,0.5,1,0.8,1.4c0.3,0.4,0.8,0.7,1.2,0.9c0.5,0.2,1,0.3,1.5,0.3
			c0.3,0,0.6,0,0.9-0.1c0.3,0,0.5-0.1,0.7-0.2c0.2-0.1,0.4-0.2,0.6-0.3c0.2-0.1,0.4-0.3,0.6-0.5C153.3,12.4,153.4,12.3,153.5,12.3z"
			/>
		<path d="M194.3,9.1c0,0.8-0.1,1.6-0.4,2.3c-0.3,0.7-0.6,1.3-1.1,1.7c-0.5,0.5-1.1,0.9-1.8,1.1c-0.7,0.3-1.4,0.4-2.3,0.4h-4.2V3.5
			h4.2c0.8,0,1.6,0.1,2.3,0.4c0.7,0.3,1.3,0.6,1.8,1.1c0.5,0.5,0.9,1.1,1.1,1.7C194.1,7.5,194.3,8.2,194.3,9.1z M192.7,9.1
			c0-0.7-0.1-1.3-0.3-1.8c-0.2-0.5-0.5-1-0.8-1.4c-0.3-0.4-0.8-0.7-1.3-0.9c-0.5-0.2-1-0.3-1.6-0.3H186v8.6h2.7
			c0.6,0,1.2-0.1,1.6-0.3c0.5-0.2,0.9-0.5,1.3-0.8c0.3-0.4,0.6-0.8,0.8-1.4C192.6,10.4,192.7,9.8,192.7,9.1z"/>
		<path d="M212,3.5v1.2h-5.4v3.7h4.4v1.2h-4.4v3.8h5.4v1.2h-7V3.5H212z"/>
		<polygon points="73.8,14.6 78.1,3.5 79.7,3.5 84,14.6 82.5,14.6 78.9,5.1 76.3,12 78.9,10.6 79.6,11.4 75.2,14.6 		"/>
		<polygon points="174.3,14.3 170,3.3 168.4,3.3 164,14.3 165.6,14.3 169.1,4.8 171.8,11.7 169.1,10.4 168.5,11.2 172.9,14.3 		"/>
	</g>
	<g id="XMLID_2_">
		<g id="XMLID_19_">
			<g>
				<defs>
					<path id="SVGID_1_" d="M30,10.4c0,0.5-0.4,1-1,1H1c-0.5,0-1-0.4-1-1V3c0-0.5,0.4-1,1-1H29c0.5,0,1,0.4,1,1V10.4z"/>
				</defs>
				<clipPath id="SVGID_2_">
					<use xlink:href="#SVGID_1_"  style="overflow:visible;"/>
				</clipPath>
				<g id="XMLID_21_" class="st2">
					
						<rect id="XMLID_30_" x="1.6" y="-1.5" transform="matrix(-0.8293 -0.5588 0.5588 -0.8293 1.2545 13.2268)" width="2.1" height="15.9"/>
					
						<rect id="XMLID_29_" x="-1" y="-3.9" transform="matrix(-0.8293 -0.5588 0.5588 -0.8293 -2.188 7.4469)" width="2.1" height="15.9"/>
					
						<rect id="XMLID_28_" x="5.3" y="-0.8" transform="matrix(-0.8293 -0.5588 0.5588 -0.8293 7.7176 16.712)" width="2.1" height="15.9"/>
					
						<rect id="XMLID_27_" x="9.6" y="-1" transform="matrix(-0.8293 -0.5588 0.5588 -0.8293 15.658 18.8183)" width="2.1" height="15.9"/>
					
						<rect id="XMLID_26_" x="14" y="-1.2" transform="matrix(-0.8293 -0.5588 0.5588 -0.8293 23.8124 20.8572)" width="2.1" height="15.9"/>
					
						<rect id="XMLID_25_" x="17.9" y="-0.7" transform="matrix(-0.8293 -0.5588 0.5588 -0.8293 30.6322 23.9072)" width="2.1" height="15.9"/>
					
						<rect id="XMLID_24_" x="22" y="-0.5" transform="matrix(-0.8293 -0.5588 0.5588 -0.8293 37.9466 26.5917)" width="2.1" height="15.9"/>
					
						<rect id="XMLID_23_" x="25.5" y="0.5" transform="matrix(-0.8293 -0.5588 0.5588 -0.8293 43.9096 30.339)" width="2.1" height="15.9"/>
					
						<rect id="XMLID_22_" x="28.8" y="1.7" transform="matrix(-0.8293 -0.5588 0.5588 -0.8293 49.2618 34.2923)" width="2.1" height="15.9"/>
				</g>
			</g>
		</g>
		<g id="XMLID_16_">
			<path id="XMLID_18_" d="M5.5,1.1c0,0.3-0.2,0.5-0.5,0.5H3.1c-0.3,0-0.5-0.2-0.5-0.5V0.5C2.5,0.2,2.8,0,3.1,0h1.8
				c0.3,0,0.5,0.2,0.5,0.5L5.5,1.1L5.5,1.1z"/>
			<rect id="XMLID_17_" x="2.5" y="0.6" width="1.8" height="1"/>
		</g>
		<g id="XMLID_13_">
			<path id="XMLID_15_" d="M24.6,1.1c0,0.3,0.2,0.5,0.5,0.5h1.8c0.3,0,0.5-0.2,0.5-0.5V0.5c0-0.3-0.2-0.5-0.5-0.5h-1.8
				c-0.3,0-0.5,0.2-0.5,0.5V1.1z"/>
			<rect id="XMLID_14_" x="25.7" y="0.6" width="1.8" height="1"/>
		</g>
		<g id="XMLID_8_">
			<g id="XMLID_10_">
				<path id="XMLID_12_" d="M5.5,12.5c0-0.3-0.2-0.5-0.5-0.5H3.1c-0.3,0-0.5,0.2-0.5,0.5v0.6c0,0.3,0.2,0.5,0.5,0.5h1.8
					c0.3,0,0.5-0.2,0.5-0.5L5.5,12.5L5.5,12.5z"/>
				<rect id="XMLID_11_" x="2.5" y="12" width="1.8" height="1"/>
			</g>
			<path id="XMLID_9_" d="M5.5,12.7c0-0.3-0.2-0.6-0.5-0.6H3.1c-0.3,0-0.5,0.2-0.5,0.6v5c0,0.3,0.2,0.6,0.5,0.6h1.8
				c0.3,0,0.5-0.2,0.5-0.6L5.5,12.7L5.5,12.7z"/>
		</g>
		<g id="XMLID_3_">
			<g id="XMLID_5_">
				<path id="XMLID_7_" d="M24.6,12.5c0-0.3,0.2-0.5,0.5-0.5h1.8c0.3,0,0.5,0.2,0.5,0.5v0.6c0,0.3-0.2,0.5-0.5,0.5h-1.8
					c-0.3,0-0.5-0.2-0.5-0.5V12.5z"/>
				<rect id="XMLID_6_" x="25.7" y="12" width="1.8" height="1"/>
			</g>
			<path id="XMLID_4_" d="M24.6,12.7c0-0.3,0.2-0.6,0.5-0.6h1.8c0.3,0,0.5,0.2,0.5,0.6v5c0,0.3-0.2,0.6-0.5,0.6h-1.8
				c-0.3,0-0.5-0.2-0.5-0.6V12.7z"/>
		</g>
	</g>
</g>
</svg>
