<svg xmlns="http://www.w3.org/2000/svg" viewBox="0 0 2428 559" enable-background="new 0 0 2428 559"><style type="text/css">.st0{fill:#FFFFFF;stroke:#FFFFFF;} .st1{fill:#FFFFFF;stroke:#FFFFFF;stroke-miterlimit:10;}</style><path class="st0" d="M192.6 353.1V208.9h46.9c9 0 16.8.9 23.4 2.6 6.5 1.7 11.9 4.2 16.1 7.4 4.2 3.2 7.3 7.2 9.3 11.8 2 4.7 3 9.9 3 15.7 0 3.6-.6 7-1.7 10.3-1.1 3.3-2.8 6.3-5.1 9.2-2.3 2.8-5.2 5.3-8.6 7.5-3.5 2.2-7.5 4-12.2 5.4 10.7 2.1 18.9 5.9 24.3 11.4 5.5 5.5 8.2 12.7 8.2 21.7 0 6.1-1.1 11.7-3.4 16.7s-5.6 9.4-10.1 13c-4.4 3.6-9.8 6.4-16.2 8.4-6.4 2-13.7 3-21.9 3h-52zm19.9-79.6h26.3c5.6 0 10.5-.6 14.6-1.8 4.1-1.2 7.5-2.9 10.2-5 2.7-2.1 4.7-4.7 6-7.8 1.3-3.1 2-6.4 2-10 0-8.5-2.6-14.7-7.8-18.6-5.2-4-13.3-5.9-24.2-5.9h-27v49.1zm0 13.9v50.2h31.8c5.7 0 10.6-.6 14.6-1.9 4.1-1.3 7.4-3.1 10.1-5.4 2.6-2.3 4.6-5.1 5.8-8.3 1.2-3.2 1.8-6.7 1.8-10.5 0-7.4-2.7-13.3-8.1-17.7-5.4-4.3-13.5-6.5-24.4-6.5h-31.6zM714 292.9v60.2h-19.8V208.9h41.6c9.3 0 17.3.9 24.1 2.8 6.8 1.8 12.4 4.5 16.8 8s7.7 7.7 9.8 12.6c2.1 4.9 3.2 10.4 3.2 16.6 0 5.1-.8 9.9-2.5 14.3-1.6 4.4-4 8.4-7.1 11.9-3.1 3.5-6.9 6.5-11.4 9s-9.6 4.4-15.2 5.6c2.5 1.4 4.7 3.5 6.6 6.1l42.9 57.3h-17.7c-3.6 0-6.3-1.4-8-4.1L739 297.4c-1.2-1.6-2.4-2.8-3.8-3.5-1.4-.7-3.4-1.1-6.2-1.1h-15zm0-14.2h20.8c5.8 0 10.9-.7 15.3-2.1 4.4-1.4 8.1-3.3 11.1-5.8s5.2-5.5 6.7-9 2.3-7.3 2.3-11.6c0-8.6-2.9-15.1-8.7-19.4-5.8-4.4-14.4-6.5-25.8-6.5H714v54.4zM959.7 292.9v60.2h-19.8V208.9h41.6c9.3 0 17.3.9 24.1 2.8 6.8 1.8 12.4 4.5 16.8 8s7.7 7.7 9.8 12.6c2.1 4.9 3.2 10.4 3.2 16.6 0 5.1-.8 9.9-2.5 14.3-1.6 4.4-4 8.4-7.1 11.9-3.1 3.5-6.9 6.5-11.4 9s-9.6 4.4-15.2 5.6c2.5 1.4 4.7 3.5 6.6 6.1l42.9 57.3H1031c-3.6 0-6.3-1.4-8-4.1l-38.2-51.5c-1.2-1.6-2.4-2.8-3.8-3.5-1.4-.7-3.4-1.1-6.2-1.1h-15.1zm0-14.2h20.8c5.8 0 10.9-.7 15.3-2.1 4.4-1.4 8.1-3.3 11.1-5.8s5.2-5.5 6.7-9 2.3-7.3 2.3-11.6c0-8.6-2.9-15.1-8.7-19.4-5.8-4.4-14.4-6.5-25.8-6.5h-21.8v54.4zM1207.2 353.1h-19.9V208.9h19.9v144.2zM1463.8 323.3c1.1 0 2.1.4 3 1.3l7.8 8.4c-6 6.8-13.3 12.2-21.9 16-8.6 3.8-18.9 5.7-31.1 5.7-10.6 0-20.2-1.8-28.8-5.4-8.6-3.6-16-8.6-22.1-15.1-6.1-6.5-10.8-14.2-14.2-23.3-3.4-9.1-5-19-5-29.9 0-10.9 1.8-20.8 5.4-29.9 3.6-9.1 8.6-16.8 15.1-23.3s14.3-11.6 23.4-15.1c9.1-3.6 19.1-5.4 30-5.4 10.8 0 20.1 1.6 28 4.9 7.8 3.3 14.8 7.7 20.9 13.4l-6.5 9c-.5.7-1 1.2-1.6 1.7-.6.4-1.5.7-2.7.7-.9 0-1.8-.3-2.8-1-1-.6-2.2-1.4-3.5-2.4-1.4-.9-3-1.9-4.8-3-1.8-1.1-4-2.1-6.6-3-2.5-.9-5.5-1.7-8.8-2.4-3.4-.6-7.2-1-11.6-1-7.9 0-15.1 1.3-21.6 4-6.5 2.7-12.2 6.4-16.9 11.3-4.7 4.9-8.4 10.9-11 17.9-2.6 7-4 14.9-4 23.6 0 9 1.3 17 4 24 2.6 7 6.2 13 10.8 17.9 4.5 4.9 9.9 8.6 16.2 11.1 6.2 2.5 12.9 3.8 20.1 3.8 4.4 0 8.3-.3 11.8-.8s6.7-1.3 9.7-2.4c3-1.1 5.7-2.4 8.3-4.1 2.6-1.6 5.1-3.6 7.8-5.9 1-.8 2.1-1.3 3.2-1.3zM1994.9 281c0 10.8-1.7 20.6-5.2 29.5-3.5 8.9-8.4 16.4-14.8 22.7-6.4 6.3-14 11.2-22.9 14.6-8.9 3.5-18.8 5.2-29.6 5.2h-55V208.9h55c10.8 0 20.7 1.7 29.6 5.2 8.9 3.5 16.5 8.4 22.9 14.7 6.4 6.3 11.3 13.9 14.8 22.8 3.5 8.8 5.2 18.6 5.2 29.4zm-20.4 0c0-8.9-1.2-16.8-3.7-23.7-2.5-7-6-12.9-10.5-17.7-4.5-4.8-10-8.5-16.4-11.1-6.4-2.5-13.6-3.8-21.5-3.8h-35v112.6h35c7.9 0 15-1.3 21.5-3.8 6.4-2.5 11.9-6.2 16.4-11 4.5-4.8 8-10.7 10.5-17.7s3.7-14.9 3.7-23.8zM2226.2 208.9v15.9h-70.6v47.9h57.2V288h-57.2v49.2h70.6v15.9h-90.6V208.9h90.6z"/><path class="st1" d="M424.7 353.1l56-144.2h20.5l56.5 144.2h-20.3L491.2 229l-34 90 34-17.5 9 10.2-57.5 41.4zM1734.1 349.6l-56-144.2h-20.5l-56.5 144.2h20.2l46.3-124.1 34 90-34-17.5-9 10.2 57.5 41.4z"/></svg>